<svg width="128" height="128" viewBox="0 0 128 128" xmlns="http://www.w3.org/2000/svg">
  <defs>
    <linearGradient id="grad1" x1="0%" y1="0%" x2="100%" y2="100%">
      <stop offset="0%" style="stop-color:#667eea;stop-opacity:1" />
      <stop offset="100%" style="stop-color:#764ba2;stop-opacity:1" />
    </linearGradient>
  </defs>
  
  <!-- Background circle -->
  <circle cx="64" cy="64" r="60" fill="url(#grad1)" stroke="#fff" stroke-width="4"/>
  
  <!-- Robot head -->
  <rect x="40" y="35" width="48" height="40" rx="8" fill="#fff" opacity="0.9"/>
  
  <!-- Robot eyes -->
  <circle cx="50" cy="50" r="4" fill="#667eea"/>
  <circle cx="78" cy="50" r="4" fill="#667eea"/>
  
  <!-- Robot mouth -->
  <rect x="55" y="60" width="18" height="3" rx="1.5" fill="#667eea"/>
  
  <!-- Document -->
  <rect x="25" y="80" width="30" height="35" rx="3" fill="#fff" opacity="0.9"/>
  <rect x="30" y="85" width="20" height="2" rx="1" fill="#667eea"/>
  <rect x="30" y="90" width="15" height="2" rx="1" fill="#667eea"/>
  <rect x="30" y="95" width="18" height="2" rx="1" fill="#667eea"/>
  <rect x="30" y="100" width="12" height="2" rx="1" fill="#667eea"/>
  
  <!-- Chart/Graph -->
  <rect x="75" y="80" width="30" height="35" rx="3" fill="#fff" opacity="0.9"/>
  <polyline points="80,105 85,95 90,100 95,85 100,90 105,75" stroke="#667eea" stroke-width="2" fill="none"/>
  <circle cx="85" cy="95" r="2" fill="#667eea"/>
  <circle cx="90" cy="100" r="2" fill="#667eea"/>
  <circle cx="95" cy="85" r="2" fill="#667eea"/>
  <circle cx="100" cy="90" r="2" fill="#667eea"/>
  <circle cx="105" cy="75" r="2" fill="#667eea"/>
  
  <!-- Connection lines -->
  <line x1="55" y1="75" x2="70" y2="80" stroke="#fff" stroke-width="2" opacity="0.7"/>
  <line x1="55" y1="75" x2="70" y2="90" stroke="#fff" stroke-width="2" opacity="0.7"/>
</svg> 